<svg xmlns="http://www.w3.org/2000/svg" version="1.1" xmlns:xlink="http://www.w3.org/1999/xlink" xmlns:svgjs="http://svgjs.dev/svgjs" width="1500" height="1500" viewBox="0 0 1500 1500"><rect width="1500" height="1500" fill="#000000"></rect><g transform="matrix(0.6666666666666666,0,0,0.6666666666666666,249.39393939393938,642.6082175303515)"><svg viewBox="0 0 396 85" data-background-color="#ffffff" preserveAspectRatio="xMidYMid meet" height="321" width="1500" xmlns="http://www.w3.org/2000/svg" xmlns:xlink="http://www.w3.org/1999/xlink"><g id="tight-bounds" transform="matrix(1,0,0,1,0.2400000000000091,0.15561453233704015)"><svg viewBox="0 0 395.52 84.68877093532595" height="84.68877093532595" width="395.52"><g><svg viewBox="0 0 395.52 84.68877093532595" height="84.68877093532595" width="395.52"><g><svg viewBox="0 0 395.52 84.68877093532595" height="84.68877093532595" width="395.52"><g id="textblocktransform"><svg viewBox="0 0 395.52 84.68877093532595" height="84.68877093532595" width="395.52" id="textblock"><g><svg viewBox="0 0 395.52 84.68877093532595" height="84.68877093532595" width="395.52"><g transform="matrix(1,0,0,1,0,0)"><svg width="395.52" viewBox="1.22 -31.05 189.48 40.57" height="84.68877093532595" data-palette-color="url(#f9a7b91b-5713-4309-ad4c-402b00d4a5f0)"></svg></g></svg></g></svg></g></svg></g><g></g></svg></g><defs></defs><mask id="0ceb8156-97ba-492e-b80c-74a9c63b4ef4"><g id="SvgjsG1665"><svg viewBox="0 0 395.52 84.68877093532595" height="84.68877093532595" width="395.52"><g><svg viewBox="0 0 395.52 84.68877093532595" height="84.68877093532595" width="395.52"><g><svg viewBox="0 0 395.52 84.68877093532595" height="84.68877093532595" width="395.52"><g id="SvgjsG1664"><svg viewBox="0 0 395.52 84.68877093532595" height="84.68877093532595" width="395.52" id="SvgjsSvg1663"><g><svg viewBox="0 0 395.52 84.68877093532595" height="84.68877093532595" width="395.52"><g transform="matrix(1,0,0,1,0,0)"><svg width="395.52" viewBox="1.22 -31.05 189.48 40.57" height="84.68877093532595" data-palette-color="url(#f9a7b91b-5713-4309-ad4c-402b00d4a5f0)"><path d="M12.06-1.27L12.06-1.27 10.25-1.27 10.25-21 1.22-21 1.22-19.73 4.05-19.73 4.05-3.81Q4.05-1.66 2.34-1.37L2.34-1.37Q1.86-1.27 1.22-1.27L1.22-1.27 1.22 0 13.23 0Q13.23-1.12 12.6-1.22L12.6-1.22Q12.35-1.27 12.06-1.27ZM10.69-27.39L10.69-27.39Q10.69-29.54 8.79-30.57L8.79-30.57Q7.96-31.05 7.03-31.05L7.03-31.05Q4.93-31.05 3.86-29.15L3.86-29.15Q3.42-28.32 3.42-27.39L3.42-27.39Q3.42-25.24 5.32-24.27L5.32-24.27Q6.15-23.83 7.03-23.83L7.03-23.83Q9.18-23.83 10.21-25.63L10.21-25.63Q10.69-26.46 10.69-27.39ZM25.1-1.27L25.1-1.27 24.22-1.27 24.27-13.87Q24.56-17.72 26.8-18.9L26.8-18.9Q27.44-19.24 28.07-19.24L28.07-19.24Q29.88-19.24 30.66-16.99L30.66-16.99Q31-15.92 31-14.6L31-14.6 31-3.81Q31-1.81 30.08-1.42L30.08-1.42Q29.64-1.27 28.85-1.27L28.85-1.27 28.85 0 39.21 0Q39.21-1.12 38.57-1.22L38.57-1.22Q38.28-1.27 37.99-1.27L37.99-1.27 37.16-1.27 37.16-13.77 37.16-14.11Q37.5-18.16 39.79-19.14L39.79-19.14Q40.28-19.34 40.77-19.34L40.77-19.34Q42.87-19.34 43.65-16.85L43.65-16.85Q43.94-15.82 43.94-14.6L43.94-14.6 43.94-3.81Q43.94-1.81 43.02-1.42L43.02-1.42Q42.58-1.27 41.79-1.27L41.79-1.27 41.79 0 52.93 0Q52.93-1.12 52.29-1.22L52.29-1.22Q52-1.27 51.71-1.27L51.71-1.27 50.1-1.27 50.1-14.01Q50.1-18.8 46.92-20.8L46.92-20.8Q45.46-21.73 43.75-21.73L43.75-21.73Q39.01-21.68 36.67-17.19L36.67-17.19Q35.5-20.65 32.52-21.53L32.52-21.53Q31.74-21.73 30.95-21.73L30.95-21.73Q26.27-21.68 24.12-17.43L24.12-17.43 23.87-21 15.18-21 15.18-19.73 18.02-19.73 18.02-3.81Q18.02-1.56 15.92-1.32L15.92-1.32Q15.57-1.27 15.18-1.27L15.18-1.27 15.18 0 26.27 0Q26.27-1.12 25.63-1.22L25.63-1.22Q25.39-1.27 25.1-1.27ZM72.6 0.49L72.6 0.49Q76.17 0.49 77.05-2.1L77.05-2.1Q77.34-3.08 77.49-4.59L77.49-4.59 76.22-4.64Q75.92-1.27 74.51-1.22L74.51-1.22Q73.43-1.32 73.43-3.66L73.43-3.66 73.43-13.87Q73.43-19.97 67.77-21.39L67.77-21.39Q66.3-21.73 64.59-21.73L64.59-21.73Q57.95-21.73 56.25-18.85L56.25-18.85Q55.81-18.12 55.81-17.29L55.81-17.29Q55.81-15.38 57.61-14.89L57.61-14.89Q58.05-14.75 58.54-14.75L58.54-14.75Q60.64-14.75 61.37-16.8L61.37-16.8Q61.47-17.09 61.66-17.77L61.66-17.77Q62.2-19.73 63.03-20.21L63.03-20.21Q63.57-20.46 64.25-20.46L64.25-20.46Q66.55-20.46 67.04-17.68L67.04-17.68Q67.23-16.65 67.23-15.23L67.23-15.23 67.23-12.06Q54.68-11.82 54.63-5.42L54.63-5.42Q54.63-1.07 58.44 0.15L58.44 0.15Q59.57 0.49 60.93 0.49L60.93 0.49Q65.08 0.49 67.04-2.64L67.04-2.64Q67.43-3.27 67.67-3.96L67.67-3.96Q68.7 0.24 72.6 0.49ZM63.47-1.61L63.47-1.61Q61.03-1.71 60.98-5.96L60.98-5.96Q60.98-9.18 63.62-10.16L63.62-10.16Q65.03-10.6 67.23-10.69L67.23-10.69 67.23-5.96Q66.3-2.54 64.25-1.76L64.25-1.76Q63.81-1.61 63.47-1.61ZM86.03-13.48L86.03-13.48Q86.03-18.31 87.1-19.58L87.1-19.58Q87.88-20.46 89.4-20.46L89.4-20.46Q91.84-20.46 92.47-18.21L92.47-18.21Q92.81-16.85 92.81-13.62L92.81-13.62Q92.81-8.69 91.64-7.37L91.64-7.37Q90.81-6.54 89.35-6.54L89.35-6.54Q86.96-6.54 86.37-8.79L86.37-8.79Q86.03-10.11 86.03-13.48ZM89.59-21.73L89.59-21.73Q83.93-21.73 81.29-18.12L81.29-18.12Q79.83-16.11 79.83-13.62L79.83-13.62Q79.83-10.11 83.24-7.47L83.24-7.47Q83.88-6.98 84.56-6.59L84.56-6.59 84.51-6.59Q81.63-6.64 80.51-4.05L80.51-4.05Q80.12-3.08 80.12-2.1L80.12-2.1Q80.17 0.24 81.93 1.71L81.93 1.71Q80.66 3.22 80.66 4.69L80.66 4.69Q80.66 7.32 84.12 8.64L84.12 8.64Q86.47 9.52 89.79 9.52L89.79 9.52Q97.8 9.52 100.14 5.76L100.14 5.76Q100.87 4.59 100.87 3.32L100.87 3.32Q100.87-1.61 95.5-2.29L95.5-2.29Q94.87-2.39 94.18-2.39L94.18-2.39 84.07-2.59Q82.81-2.64 82.56-3.71L82.56-3.71Q82.51-3.86 82.51-4L82.51-4Q82.51-5.13 83.73-5.27L83.73-5.27Q83.93-5.32 84.12-5.32L84.12-5.32 89.35-5.27Q94.72-5.27 97.45-8.94L97.45-8.94Q99.02-11.08 99.02-13.72L99.02-13.72Q98.97-17.29 96.33-19.58L96.33-19.58Q97.21-20.95 98.38-21L98.38-21Q99.02-21 99.94-20.17L99.94-20.17Q100.68-19.58 101.31-19.58L101.31-19.58Q102.78-19.58 103.12-20.95L103.12-20.95Q103.17-21.19 103.17-21.44L103.17-21.44Q103.17-23.19 101.46-23.93L101.46-23.93Q100.68-24.27 99.75-24.27L99.75-24.27Q97.21-24.27 95.79-21.34L95.79-21.34Q95.55-20.8 95.35-20.26L95.35-20.26Q93.01-21.73 89.59-21.73ZM89.79 8.2L89.79 8.2Q83.83 8.2 82.61 5.57L82.61 5.57Q82.37 5.03 82.37 4.49L82.37 4.49Q82.37 3.47 83.1 2.44L83.1 2.44Q84.07 2.83 85.15 2.83L85.15 2.83 95.01 2.93Q97.84 2.93 98.33 3.81L98.33 3.81Q98.53 4.15 98.53 4.64L98.53 4.64Q98.53 6.93 93.99 7.81L93.99 7.81Q92.08 8.2 89.79 8.2ZM114.49-1.27L114.49-1.27 112.69-1.27 112.69-21 103.65-21 103.65-19.73 106.48-19.73 106.48-3.81Q106.48-1.66 104.78-1.37L104.78-1.37Q104.29-1.27 103.65-1.27L103.65-1.27 103.65 0 115.66 0Q115.66-1.12 115.03-1.22L115.03-1.22Q114.78-1.27 114.49-1.27ZM113.12-27.39L113.12-27.39Q113.12-29.54 111.22-30.57L111.22-30.57Q110.39-31.05 109.46-31.05L109.46-31.05Q107.36-31.05 106.29-29.15L106.29-29.15Q105.85-28.32 105.85-27.39L105.85-27.39Q105.85-25.24 107.75-24.27L107.75-24.27Q108.58-23.83 109.46-23.83L109.46-23.83Q111.61-23.83 112.64-25.63L112.64-25.63Q113.12-26.46 113.12-27.39ZM127.87-1.27L127.87-1.27 126.65-1.27 126.7-13.77Q127.04-17.63 129.53-18.85L129.53-18.85Q130.21-19.19 130.94-19.19L130.94-19.19Q133.73-19.19 134.22-15.92L134.22-15.92Q134.31-15.28 134.31-14.6L134.31-14.6 134.31-3.81Q134.31-1.76 133.24-1.42L133.24-1.42Q132.75-1.27 132.07-1.27L132.07-1.27 132.07 0 143.35 0Q143.35-1.12 142.71-1.22L142.71-1.22Q142.42-1.27 142.13-1.27L142.13-1.27 140.51-1.27 140.51-13.77Q140.51-19.82 136.22-21.34L136.22-21.34Q135.05-21.73 133.78-21.73L133.78-21.73Q130.21-21.73 127.72-18.9L127.72-18.9Q126.99-18.07 126.55-17.19L126.55-17.19 126.31-21 117.61-21 117.61-19.73 120.45-19.73 120.45-3.81Q120.45-1.56 118.35-1.32L118.35-1.32Q118.01-1.27 117.61-1.27L117.61-1.27 117.61 0 129.04 0Q129.04-1.12 128.41-1.22L128.41-1.22Q128.16-1.27 127.87-1.27ZM152.18-3.17L152.18-3.17Q152.18-5.22 150.33-6.25L150.33-6.25Q149.55-6.64 148.72-6.64L148.72-6.64Q146.66-6.64 145.69-4.79L145.69-4.79Q145.3-4 145.3-3.17L145.3-3.17Q145.3-1.07 147.15-0.15L147.15-0.15Q147.89 0.24 148.72 0.24L148.72 0.24Q150.82 0.24 151.79-1.51L151.79-1.51Q152.18-2.29 152.18-3.17ZM172.35 0.49L172.35 0.49Q175.91 0.49 176.79-2.1L176.79-2.1Q177.08-3.08 177.23-4.59L177.23-4.59 175.96-4.64Q175.67-1.27 174.25-1.22L174.25-1.22Q173.18-1.32 173.18-3.66L173.18-3.66 173.18-13.87Q173.18-19.97 167.51-21.39L167.51-21.39Q166.05-21.73 164.34-21.73L164.34-21.73Q157.7-21.73 155.99-18.85L155.99-18.85Q155.55-18.12 155.55-17.29L155.55-17.29Q155.55-15.38 157.36-14.89L157.36-14.89Q157.8-14.75 158.28-14.75L158.28-14.75Q160.38-14.75 161.12-16.8L161.12-16.8Q161.21-17.09 161.41-17.77L161.41-17.77Q161.95-19.73 162.78-20.21L162.78-20.21Q163.31-20.46 164-20.46L164-20.46Q166.29-20.46 166.78-17.68L166.78-17.68Q166.97-16.65 166.97-15.23L166.97-15.23 166.97-12.06Q154.43-11.82 154.38-5.42L154.38-5.42Q154.38-1.07 158.19 0.15L158.19 0.15Q159.31 0.49 160.68 0.49L160.68 0.49Q164.83 0.49 166.78-2.64L166.78-2.64Q167.17-3.27 167.41-3.96L167.41-3.96Q168.44 0.24 172.35 0.49ZM163.21-1.61L163.21-1.61Q160.77-1.71 160.72-5.96L160.72-5.96Q160.72-9.18 163.36-10.16L163.36-10.16Q164.78-10.6 166.97-10.69L166.97-10.69 166.97-5.96Q166.05-2.54 164-1.76L164-1.76Q163.56-1.61 163.21-1.61ZM189.53-1.27L189.53-1.27 187.72-1.27 187.72-21 178.69-21 178.69-19.73 181.52-19.73 181.52-3.81Q181.52-1.66 179.81-1.37L179.81-1.37Q179.33-1.27 178.69-1.27L178.69-1.27 178.69 0 190.7 0Q190.7-1.12 190.07-1.22L190.07-1.22Q189.82-1.27 189.53-1.27ZM188.16-27.39L188.16-27.39Q188.16-29.54 186.26-30.57L186.26-30.57Q185.43-31.05 184.5-31.05L184.5-31.05Q182.4-31.05 181.33-29.15L181.33-29.15Q180.89-28.32 180.89-27.39L180.89-27.39Q180.89-25.24 182.79-24.27L182.79-24.27Q183.62-23.83 184.5-23.83L184.5-23.83Q186.65-23.83 187.68-25.63L187.68-25.63Q188.16-26.46 188.16-27.39Z" opacity="1" transform="matrix(1,0,0,1,0,0)" fill="white" class="wordmark-text-0" id="SvgjsPath1662"></path></svg></g></svg></g></svg></g></svg></g><g></g></svg></g><defs><mask></mask></defs></svg><rect width="395.52" height="84.68877093532595" fill="black" stroke="none" visibility="hidden"></rect></g></mask><linearGradient x1="0.054" x2="0.941" y1="0.5" y2="0.5" id="f9a7b91b-5713-4309-ad4c-402b00d4a5f0"><stop stop-color="#0f3054" offset="0"></stop><stop stop-color="#3b8dcb" offset="0.498"></stop><stop stop-color="#0f3054" offset="1"></stop></linearGradient><rect width="395.52" height="84.68877093532595" fill="#ffffff" mask="url(#0ceb8156-97ba-492e-b80c-74a9c63b4ef4)" data-fill-palette-color="primary"></rect></svg><rect width="395.52" height="84.68877093532595" fill="none" stroke="none" visibility="hidden"></rect></g></svg></g></svg>